<?xml version="1.0" standalone="no"?>
<!DOCTYPE svg PUBLIC "-//W3C//DTD SVG 20010904//EN"
 "http://www.w3.org/TR/2001/REC-SVG-20010904/DTD/svg10.dtd">
<svg version="1.0" xmlns="http://www.w3.org/2000/svg"
 width="678.000000pt" height="678.000000pt" viewBox="0 0 678.000000 678.000000"
 preserveAspectRatio="xMidYMid meet">

<g transform="translate(0.000000,678.000000) scale(0.100000,-0.100000)"
fill="#00A6DD" stroke="none">
<path d="M1343 6000 c-228 -31 -436 -127 -550 -255 -100 -112 -164 -259 -189
-435 -20 -140 -20 -1758 0 -1880 71 -436 385 -702 858 -727 l118 -6 2 -669 3
-668 565 501 c311 276 650 578 754 670 l188 168 792 3 791 4 105 28 c113 30
241 85 314 135 110 76 214 205 266 331 67 163 65 127 65 1155 0 867 -1 935
-18 1000 -41 157 -108 291 -193 385 -83 92 -226 180 -349 216 -173 50 -76 47
-1825 50 -899 1 -1663 -2 -1697 -6z m2949 -914 c334 -71 575 -416 528 -757 -6
-46 -18 -103 -27 -128 -39 -117 -131 -256 -214 -321 -21 -18 -39 -35 -39 -39
0 -4 27 -53 61 -110 33 -56 59 -104 57 -106 -14 -12 -191 -115 -197 -115 -5 0
-39 52 -77 115 -55 91 -73 113 -87 109 -42 -13 -173 -19 -245 -12 -92 8 -203
44 -280 90 -31 18 -90 67 -132 109 -174 174 -240 423 -177 666 31 117 83 208
172 302 101 105 234 180 354 201 76 13 232 11 303 -4z m-2172 -126 l0 -130
-275 0 -275 0 0 -150 0 -150 220 0 220 0 0 -130 0 -130 -220 0 -220 0 0 -265
0 -265 -145 0 -145 0 0 675 0 675 420 0 420 0 0 -130z m785 113 c4 -10 67
-180 140 -378 73 -198 170 -459 215 -580 45 -121 95 -255 110 -297 l29 -78
-153 0 -153 0 -40 108 c-23 59 -49 128 -58 155 l-18 47 -232 0 -233 0 -57
-155 -58 -155 -154 0 c-84 0 -153 3 -153 8 0 4 14 43 31 87 17 44 55 145 84
225 30 80 88 237 130 350 42 113 110 297 152 410 41 112 81 219 88 237 l14 33
154 0 c138 0 156 -2 162 -17z"/>
<path d="M4030 4814 c-199 -54 -326 -262 -291 -476 30 -184 172 -318 354 -335
31 -3 57 -3 57 0 0 4 -17 35 -38 69 -70 114 -74 97 37 161 54 32 100 57 103
57 4 0 32 -42 64 -92 31 -51 61 -97 65 -102 9 -10 61 41 94 93 41 66 58 143
53 246 -3 78 -9 102 -35 156 -57 115 -150 193 -268 223 -72 19 -123 19 -195 0z"/>
<path d="M2725 4705 c-23 -81 -104 -356 -111 -377 -5 -17 6 -18 131 -18 127 0
137 1 130 18 -6 16 -31 99 -100 327 l-32 110 -18 -60z"/>
<path d="M5735 4117 c0 -894 -1 -957 -19 -1032 -78 -334 -276 -537 -628 -642
l-93 -27 -827 -6 -828 -5 -360 -320 -360 -320 528 -3 527 -2 165 -147 c91 -80
197 -174 235 -208 175 -156 556 -494 715 -635 196 -173 207 -183 340 -303 l95
-85 3 682 2 683 105 6 c474 29 778 257 880 662 l26 100 -3 980 -3 980 -28 90
c-68 217 -186 365 -367 459 -36 18 -74 36 -85 40 -20 6 -20 1 -20 -947z"/>
</g>
</svg>